<svg width="274" height="40" viewBox="0 0 274 40" fill="none" xmlns="http://www.w3.org/2000/svg">
<path d="M15.9832 2.69683L4.81705 9.24247C2.14293 10.8101 0.5 13.6775 0.5 16.7773C0.5 21.6009 4.41034 25.5113 9.23399 25.5113H15.5204C18.9269 25.5113 21.6883 22.7498 21.6883 19.3434C21.6883 17.1544 22.8485 15.1294 24.737 14.0223L34.6026 8.23907C35.1038 7.94524 35.7406 8.0294 36.1483 8.44334C36.7285 9.03243 36.5993 10.0102 35.886 10.4283L27.9752 15.0656C25.4005 16.5749 23.8187 19.3358 23.8187 22.3203V25.5811C23.8187 26.4653 24.1665 27.3141 24.7869 27.9441C25.4199 28.5867 26.2842 28.9486 27.1862 28.9486H35.0781C37.9226 28.9486 40.7156 28.1903 43.1696 26.7518L52.8699 21.0654C53.2351 20.8513 53.6875 20.8513 54.0528 21.0654C54.8235 21.5172 54.8235 22.6315 54.0528 23.0833L46.6391 27.4292C44.9089 28.4435 44.5954 30.8152 46.0028 32.2442C46.5813 32.8315 47.3712 33.1623 48.1957 33.1623H70.7364C72.4756 33.1623 74.1834 32.6986 75.6838 31.8191L81.6945 28.2955C82.0245 28.1021 82.4437 28.1575 82.7121 28.43C83.094 28.8178 83.009 29.4615 82.5394 29.7367L75.1502 34.0683C73.9992 34.743 72.6891 35.0987 71.3549 35.0987H48.0033C46.4547 35.0987 44.9709 34.4775 43.8842 33.3741C42.7976 32.2708 41.3137 31.6496 39.7652 31.6496H27.3087C25.8126 31.6496 24.3791 31.0494 23.3293 29.9835C22.2795 28.9175 20.8459 28.3173 19.3498 28.3173H4.1747C2.14522 28.3173 0.5 29.9626 0.5 31.992C0.5 33.65 1.61022 35.1026 3.21003 35.5379L15.3203 38.8326C16.6808 39.2027 18.0843 39.3914 19.4943 39.3937L80.0055 39.4929C82.839 39.4976 85.6229 38.7497 88.0726 37.3257L94.6623 33.4952C96.6279 32.3526 97.8373 30.2507 97.8373 27.9771V23.7409C97.8373 22.5554 96.8763 21.5944 95.6909 21.5944H94.9767C94.1856 21.5944 93.5444 20.9532 93.5444 20.1622C93.5444 19.3711 94.1856 18.7299 94.9767 18.7299H97.2372C98.2263 18.7299 99.1741 18.3331 99.8682 17.6283L105.84 11.5649C106.058 11.3432 106.399 11.2982 106.668 11.4555C107.05 11.6794 107.119 12.2029 106.808 12.5184L101.14 18.2736C99.8557 19.5775 99.1359 21.3341 99.1359 23.1642V30.4408C99.1359 31.5879 98.5279 32.649 97.5384 33.2291C94.6955 34.8956 95.8775 39.2494 99.1729 39.2494H103.898C104.555 39.2494 105.205 39.1056 105.802 38.8282L113.314 35.3339C114.103 34.9668 114.823 34.4662 115.442 33.8541L116.589 32.7198C119.507 29.8354 118.936 24.9774 115.43 22.8477L110.062 19.5873C109.581 19.2953 109.474 18.6433 109.836 18.2125C110.124 17.8699 110.617 17.7847 111.003 18.0111L119.898 23.2257C122.682 24.8575 123.186 28.6733 120.922 30.9723L120.751 31.1459C118.574 33.3568 119.059 37.0263 121.736 38.5955C122.466 39.0237 123.297 39.2494 124.144 39.2494H140.57C141.961 39.2494 143.293 38.6915 144.269 37.7008C145.585 36.3642 147.52 35.8417 149.331 36.3342L157.012 38.424C159.015 38.969 161.106 39.119 163.166 38.8655L180.702 36.7079C181.717 36.5831 182.707 37.0806 183.212 37.9692C183.662 38.7605 184.503 39.2494 185.413 39.2494H196.532C197.526 39.2494 198.443 38.7158 198.934 37.8521C199.826 36.2831 198.999 34.2939 197.258 33.8201L186.343 30.8507C185.733 30.6847 185.178 30.36 184.734 29.9096C183.334 28.4878 181.041 28.4878 179.64 29.9096L178.557 31.0095C178.387 31.182 178.175 31.3063 177.941 31.3698C176.766 31.6896 175.79 30.4308 176.392 29.3721L178.027 26.4967C178.633 25.4295 178.458 24.089 177.596 23.2143L171.353 16.8759C170.961 16.4775 170.961 15.8378 171.353 15.4394C171.682 15.1055 172.196 15.0376 172.6 15.2746L180.168 19.7108C181.742 20.6334 183.09 21.8948 184.116 23.4034L187.198 27.9369C188.141 29.3239 189.559 30.3181 191.184 30.7321C193.576 31.3415 196.111 30.6209 197.824 28.8446L204.793 21.6215C205.932 20.4416 206.568 18.8659 206.568 17.2263V11.8751C206.568 11.3345 207.006 10.8962 207.547 10.8962C208.087 10.8962 208.526 11.3345 208.526 11.8751V17.1994C208.526 18.8545 207.875 20.4431 206.713 21.6223L205.407 22.9485C203.642 24.7406 202.653 27.155 202.653 29.6703C202.653 34.9607 206.941 39.2494 212.232 39.2494H236.518C241.242 39.2494 244.207 34.1514 241.872 30.0452C241.338 29.1054 240.566 28.3228 239.633 27.7761L231.45 22.9791C230.426 22.3791 229.261 22.0628 228.075 22.0628H227.173C225.962 22.0628 224.802 22.5485 223.952 23.4111L221.463 25.9392C221.061 26.3471 220.403 26.3471 220.001 25.9392C219.608 25.54 219.608 24.8992 220.001 24.5L223.211 21.2405C224.277 20.1583 225.733 19.549 227.252 19.549H227.74C228.956 19.549 230.149 19.873 231.198 20.4878L238.463 24.7464C240.885 26.1666 242.892 28.1995 244.28 30.6407L245.368 32.554C247.721 36.6929 252.116 39.2494 256.877 39.2494H262.25C272.001 39.2494 276.922 27.4942 270.08 20.5468C268.014 18.4494 265.193 17.2684 262.25 17.2684H236.525C235.744 17.2684 235.253 16.4256 235.639 15.7468C235.82 15.4285 236.158 15.2319 236.525 15.2319H247.818C249.791 15.2319 251.682 14.4404 253.066 13.0347L253.659 12.4326C258.025 8 254.885 0.5 248.663 0.5C246.142 0.5 243.814 1.85397 242.568 4.04601L241.179 6.48766C239.075 10.1891 235.145 12.4753 230.887 12.4753H229.155C226.934 12.4753 224.806 13.3663 223.247 14.9487L219.176 19.0823C218.906 19.3567 218.484 19.4125 218.152 19.2177C217.679 18.9405 217.593 18.2923 217.978 17.9018L222.995 12.8079C224.199 11.5849 225.844 10.8962 227.561 10.8962H233.791C235.66 10.8962 237.385 9.89254 238.309 8.26757C240.28 4.80226 237.777 0.5 233.791 0.5H211.185C206.899 0.5 202.792 2.21931 199.785 5.27272L197.499 7.59349C195.636 9.48516 194.592 12.0337 194.592 14.6888V27.8771C194.592 28.6287 193.837 29.1461 193.136 28.8751C192.724 28.7157 192.452 28.3192 192.452 27.8771V17.1017C192.452 12.9004 190.8 8.86769 187.852 5.87441L187.259 5.27272C184.252 2.21932 180.145 0.5 175.86 0.5H172.406C168.12 0.5 164.013 2.21931 161.006 5.27272L148.942 17.5216C146.381 20.1222 146.951 24.4386 150.1 26.2846L155.627 29.5246C156.108 29.8062 156.181 30.4713 155.774 30.8508C155.505 31.1013 155.103 31.1455 154.786 30.9597L131.574 17.3526C131.308 17.1969 131.226 16.8513 131.393 16.5927C131.55 16.3494 131.871 16.2731 132.121 16.4195L137.128 19.3549C139.736 20.8838 143.05 20.4459 145.171 18.292L146.706 16.734C152.595 10.7542 148.303 0.639443 139.91 0.720762L139.158 0.728044C136.57 0.753119 134.099 1.80919 132.292 3.66225L124.76 11.387C122.007 14.2109 122.591 18.8609 125.957 20.9161L131.178 24.1037C131.644 24.3879 131.747 25.0199 131.395 25.4369C131.116 25.7684 130.638 25.8505 130.264 25.6313L122.004 20.7887C119.015 19.037 118.474 14.9408 120.905 12.4729C122.943 10.4037 122.943 7.08199 120.905 5.01284L118.69 2.76387C117.263 1.31553 115.315 0.5 113.283 0.5H106.305C105.967 0.5 105.693 0.773874 105.693 1.11171C105.693 1.65894 105.03 1.93084 104.646 1.54096L103.924 0.808184C103.73 0.61102 103.465 0.5 103.188 0.5H80.8969C79.3363 0.5 77.8461 1.14943 76.7837 2.29255C74.7294 4.50295 74.7894 7.94178 76.9196 10.0792L85.255 18.4427C85.4382 18.6266 85.6871 18.7299 85.9466 18.7299C86.4859 18.7299 86.923 19.1671 86.923 19.7063V20.1622C86.923 20.9532 86.2818 21.5944 85.4908 21.5944H80.4231C79.2146 21.5944 78.03 21.9314 77.0023 22.5674L70.1635 26.8002C69.936 26.941 69.6414 26.9056 69.4537 26.715C69.2017 26.4592 69.2444 26.0373 69.5426 25.8371L75.2694 21.9938C78.4637 19.8501 79.0019 15.3665 76.4059 12.5277L74.1991 10.1146C72.4746 8.22885 70.037 7.1548 67.4816 7.1548H58.1316C55.1437 7.1548 52.2808 5.95614 50.1842 3.8274C48.0876 1.69866 45.2246 0.5 42.2368 0.5H24.0747C21.2302 0.5 18.4371 1.25831 15.9832 2.69683Z" fill="#BABABA" stroke="white"/>
</svg>
